<?xml version="1.0" encoding="UTF-8" standalone="no"?>
<!-- Generator: Adobe Illustrator 18.1.1, SVG Export Plug-In . SVG Version: 6.00 Build 0)  -->

<svg
   xmlns:dc="http://purl.org/dc/elements/1.1/"
   xmlns:cc="http://creativecommons.org/ns#"
   xmlns:rdf="http://www.w3.org/1999/02/22-rdf-syntax-ns#"
   xmlns:svg="http://www.w3.org/2000/svg"
   xmlns="http://www.w3.org/2000/svg"
   xmlns:sodipodi="http://sodipodi.sourceforge.net/DTD/sodipodi-0.dtd"
   xmlns:inkscape="http://www.inkscape.org/namespaces/inkscape"
   version="1.1"
   id="Layer_1"
   x="0px"
   y="0px"
   viewBox="-297 420.9 256 256"
   enable-background="new -297 420.9 512 512"
   xml:space="preserve"
   inkscape:version="0.91pre3 r13670"
   sodipodi:docname="pen.svg"
   width="256"
   height="256"><metadata
     id="metadata4171"><rdf:RDF><cc:Work
         rdf:about=""><dc:format>image/svg+xml</dc:format><dc:type
           rdf:resource="http://purl.org/dc/dcmitype/StillImage" /><dc:title></dc:title></cc:Work></rdf:RDF></metadata><defs
     id="defs4169" /><sodipodi:namedview
     pagecolor="#ffffff"
     bordercolor="#666666"
     borderopacity="1"
     objecttolerance="10"
     gridtolerance="10"
     guidetolerance="10"
     inkscape:pageopacity="0"
     inkscape:pageshadow="2"
     inkscape:window-width="1920"
     inkscape:window-height="1017"
     id="namedview4167"
     showgrid="false"
     inkscape:zoom="0.4609375"
     inkscape:cx="256"
     inkscape:cy="256"
     inkscape:window-x="-8"
     inkscape:window-y="-8"
     inkscape:window-maximized="1"
     inkscape:current-layer="Layer_1" /><path
     d="m -287.63093,452.90156 22.62623,-22.63067 c 12.49208,-12.49453 32.76037,-12.49453 45.25246,0 l 11.28803,11.34042 -67.87869,67.892 -11.28803,-11.34042 c -12.49209,-12.49454 -12.49209,-32.7668 0,-45.26133 z m 33.91426,56.55157 -11.3382,11.34043 124.46935,124.44357 c 3.11048,3.16127 8.17755,3.16127 11.28803,0 3.11048,-3.11109 3.11048,-8.17915 0,-11.29024 L -253.71667,509.45313 Z m 56.59066,-56.55157 -11.28803,11.29024 124.469353,124.44357 c 3.11048,3.11109 8.177552,3.11109 11.288031,0 3.11048,-3.11108 3.11048,-8.17915 0,-11.29024 L -197.12601,452.90156 Z m -45.25246,45.26133 124.46935,124.44357 c 6.27113,6.32254 16.40527,6.27236 22.626233,0 6.22096,-6.27235 6.271129,-16.40848 0,-22.63066 L -219.75224,475.53222 -242.37847,498.16289 Z M -118.96267,657.38041 -41,676.89999 -60.515751,598.72133 c -0.351183,0.40143 -0.451522,0.85304 -0.802705,1.25447 -3.762677,3.76341 -8.528734,6.02146 -13.696144,6.72396 0.200676,1.50537 0.451521,3.01074 0.451521,4.61646 0,8.53041 -3.311155,16.55902 -9.381608,22.63067 -6.070452,6.07164 -14.097496,9.38344 -22.626233,9.38344 -1.65558,0 -3.31115,-0.25089 -4.91656,-0.50179 -0.70237,5.01789 -2.50845,9.88524 -6.37147,13.69883 -0.40135,0.30108 -0.75253,0.55197 -1.10372,0.85304 z"
     id="path4165"
     inkscape:connector-curvature="0"
     style="fill:#a7dbd8" /></svg>